<?xml version="1.0" standalone="no"?>
<!DOCTYPE svg PUBLIC "-//W3C//DTD SVG 20010904//EN"
 "http://www.w3.org/TR/2001/REC-SVG-20010904/DTD/svg10.dtd">
<svg version="1.0" xmlns="http://www.w3.org/2000/svg"
 width="225.000000pt" height="225.000000pt" viewBox="0 0 225.000000 225.000000"
 preserveAspectRatio="xMidYMid meet">
<metadata>
Created by potrace 1.16, written by Peter Selinger 2001-2019
</metadata>
<g transform="translate(0.000000,225.000000) scale(0.100000,-0.100000)"
fill="#000000" stroke="none">
<path d="M513 1748 c-30 -15 -47 -67 -33 -103 6 -16 30 -54 54 -86 25 -33 54
-88 66 -126 25 -75 74 -181 94 -201 10 -10 9 -26 -5 -80 -32 -122 -18 -249 37
-332 28 -42 58 -56 98 -46 24 6 41 40 48 96 3 23 5 21 30 -21 15 -26 62 -78
104 -118 88 -82 132 -98 61 -22 -71 76 -116 151 -173 289 -9 23 -22 42 -29 42
-20 0 -64 -94 -71 -154 -6 -52 -8 -55 -24 -41 -44 40 -54 202 -20 320 l20 70
-20 25 c-31 39 -65 108 -89 182 -12 37 -36 86 -52 110 -17 24 -42 60 -56 80
-51 75 -1 88 101 28 28 -17 58 -35 66 -39 8 -5 44 -13 80 -19 127 -19 271
-112 374 -243 62 -79 88 -126 192 -347 63 -133 63 -134 171 -173 59 -21 203
-108 203 -121 0 -5 -21 -8 -47 -8 -71 -1 -147 -30 -151 -57 -5 -33 67 -105
148 -147 38 -20 89 -52 112 -69 62 -47 68 -50 68 -34 0 25 -88 114 -160 162
-38 26 -72 50 -75 54 -2 5 33 16 78 26 129 27 129 27 66 92 -65 66 -146 123
-234 164 -71 33 -72 33 -171 262 -112 259 -353 480 -548 503 -40 5 -76 18
-114 41 -85 51 -151 64 -199 41z"/>
</g>
</svg>
