<?xml version="1.0" standalone="no"?>
<!DOCTYPE svg PUBLIC "-//W3C//DTD SVG 20010904//EN"
 "http://www.w3.org/TR/2001/REC-SVG-20010904/DTD/svg10.dtd">
<svg version="1.0" xmlns="http://www.w3.org/2000/svg"
 width="512.000000pt" height="512.000000pt" viewBox="0 0 512.000000 512.000000"
 preserveAspectRatio="xMidYMid meet">
<metadata>
Created by potrace 1.16, written by Peter Selinger 2001-2019
</metadata>
<g transform="translate(0.000000,512.000000) scale(0.100000,-0.100000)"
fill="#000000" stroke="none">
<path d="M2225 5114 c-204 -19 -281 -29 -415 -50 -633 -103 -1111 -345 -1263
-639 -60 -115 -57 -13 -57 -1864 0 -1854 -3 -1750 57 -1866 152 -294 630 -536
1263 -639 289 -46 357 -51 750 -51 393 0 461 5 750 51 633 103 1111 345 1263
639 60 116 57 12 57 1866 0 1484 -2 1704 -16 1755 -98 383 -657 669 -1521 780
-111 14 -764 28 -868 18z m806 -188 c718 -80 1254 -309 1390 -594 27 -56 31
-73 27 -131 -5 -85 -34 -145 -111 -227 -232 -249 -746 -428 -1392 -485 -276
-24 -733 -12 -1005 27 -536 76 -956 242 -1157 458 -77 82 -106 142 -111 227
-4 58 0 75 27 131 120 253 588 477 1186 567 112 17 205 27 425 45 99 9 593 -4
721 -18z m-2201 -1213 c295 -199 752 -336 1295 -388 213 -21 657 -21 870 0
627 60 1159 242 1418 484 l48 45 -3 -270 -3 -269 -29 -59 c-113 -231 -521
-440 -1056 -540 -656 -124 -1408 -90 -1980 89 -176 55 -354 137 -472 216 -90
61 -190 165 -224 235 l-29 59 -3 269 -3 270 48 -45 c26 -25 82 -68 123 -96z
m-26 -807 c144 -103 299 -177 521 -250 873 -285 2152 -217 2831 150 90 48 221
139 272 187 l32 31 0 -245 c0 -270 -7 -317 -60 -394 -161 -233 -581 -424
-1135 -514 -248 -40 -332 -46 -705 -46 -373 0 -457 6 -705 46 -474 77 -867
234 -1054 421 -131 131 -141 165 -141 487 l0 245 33 -31 c17 -17 67 -56 111
-87z m-80 -763 c264 -239 792 -413 1441 -474 167 -16 623 -16 790 0 649 61
1177 235 1441 474 29 26 55 47 59 47 3 0 5 -118 3 -262 l-3 -263 -28 -58
c-119 -242 -562 -461 -1122 -556 -269 -45 -406 -55 -745 -55 -339 0 -476 10
-745 55 -560 95 -1003 314 -1122 556 l-28 58 -3 263 c-2 144 0 262 3 262 4 0
30 -21 59 -47z m106 -910 c127 -87 342 -183 551 -247 694 -209 1664 -209 2358
0 283 86 495 193 659 332 l63 54 -3 -269 c-4 -300 -3 -295 -82 -399 -166 -220
-600 -407 -1134 -489 -425 -64 -939 -64 -1364 0 -534 82 -968 269 -1134 489
-79 104 -78 99 -82 399 l-3 269 63 -54 c35 -30 84 -68 108 -85z"/>
</g>
</svg>
